HIERARCHY
ROOT Hips
{
  OFFSET 13.6774 106.653 -34.4427
  CHANNELS 6 Xposition Yposition Zposition Zrotation Xrotation Yrotation
  JOINT ToSpine
  {
    OFFSET -2.69724 7.43032 -0.144315
    CHANNELS 3 Zrotation Xrotation Yrotation
    JOINT Spine
    {
      OFFSET -0.0310711 10.7595 1.96963
      CHANNELS 3 Zrotation Xrotation Yrotation
      JOINT Spine1
      {
        OFFSET 19.9056 3.91189 0.764692
        CHANNELS 3 Zrotation Xrotation Yrotation
        JOINT Neck
        {
          OFFSET 25.9749 7.03908 -0.130764
          CHANNELS 3 Zrotation Xrotation Yrotation
          JOINT Head
          {
            OFFSET 9.52751 0.295786 -0.907742
            CHANNELS 3 Zrotation Xrotation Yrotation
            End Site
            {
              OFFSET 16.4037 0.713936 2.7358
            }
          }
        }
        JOINT LeftShoulder
        {
          OFFSET 17.7449 4.33886 11.7777
          CHANNELS 3 Zrotation Xrotation Yrotation
          JOINT LeftArm
          {
            OFFSET 0.911315 1.27913 9.80584
            CHANNELS 3 Zrotation Xrotation Yrotation
            JOINT LeftForeArm
            {
              OFFSET 28.6126 1.18197 -3.53199
              CHANNELS 3 Zrotation Xrotation Yrotation
              JOINT LeftHand
              {
                OFFSET 27.5088 0.0218783 0.327423
                CHANNELS 3 Zrotation Xrotation Yrotation
                End Site
                {
                  OFFSET 18.6038 -0.000155887 0.382096
                }
              }
            }
          }
        }
        JOINT RightShoulder
        {
          OFFSET 17.1009 2.89543 -12.2328
          CHANNELS 3 Zrotation Xrotation Yrotation
          JOINT RightArm
          {
            OFFSET 1.4228 0.178766 -10.211
            CHANNELS 3 Zrotation Xrotation Yrotation
            JOINT RightForeArm
            {
              OFFSET 28.733 1.87905 2.64907
              CHANNELS 3 Zrotation Xrotation Yrotation
              JOINT RightHand
              {
                OFFSET 27.4588 0.290562 -0.101845
                CHANNELS 3 Zrotation Xrotation Yrotation
                End Site
                {
                  OFFSET 17.8396 -0.255518 -0.000602873
                }
              }
            }
          }
        }
      }
    }
  }
  JOINT LeftUpLeg
  {
    OFFSET -5.61296 -2.22332 -10.2353
    CHANNELS 3 Zrotation Xrotation Yrotation
    JOINT LeftLeg
    {
      OFFSET 2.56703 -44.7417 -7.93097
      CHANNELS 3 Zrotation Xrotation Yrotation
      JOINT LeftFoot
      {
        OFFSET 3.16933 -46.5642 -3.96578
        CHANNELS 3 Zrotation Xrotation Yrotation
        JOINT LeftToeBase
        {
          OFFSET 0.346054 -6.02161 12.8035
          CHANNELS 3 Zrotation Xrotation Yrotation
          End Site
          {
            OFFSET 0.134235 -1.35082 5.13018
          }
        }
      }
    }
  }
  JOINT RightUpLeg
  {
    OFFSET -5.7928 -1.72406 10.6446
    CHANNELS 3 Zrotation Xrotation Yrotation
    JOINT RightLeg
    {
      OFFSET -2.57161 -44.7178 -7.85259
      CHANNELS 3 Zrotation Xrotation Yrotation
      JOINT RightFoot
      {
        OFFSET -3.10148 -46.5936 -4.03391
        CHANNELS 3 Zrotation Xrotation Yrotation
        JOINT RightToeBase
        {
          OFFSET -0.0828122 -6.13587 12.8035
          CHANNELS 3 Zrotation Xrotation Yrotation
          End Site
          {
            OFFSET -0.131328 -1.35082 5.13018
          }
        }
      }
    }
  }
}
MOTION
Frames: 17
Frame Time: 0.03333333333333333
0.0000 93.1000 0.0000 71.1782 -11.7336 -4.9839 -70.8972 -0.0495 87.9745 83.6714 70.1262 -2.1923 -5.0923 16.1593 13.1414 -133.5862 41.4257 153.0160 -126.9064 81.3694 149.2003 0.2400 -13.7180 -23.9590 -78.7260 33.0155 -141.4270 20.2366 -6.2461 -102.6632 -0.3524 -0.0378 -0.0513 -2.0039 6.9093 39.3917 -139.2355 5.5558 84.3514 11.9536 -1.3378 88.0792 -0.0588 -0.0903 0.0185 -57.3431 10.3253 97.7575 -1.9084 30.7695 -4.3031 -2.4832 -12.8192 -1.3876 3.0132 -10.3524 13.7881 -51.9140 -10.1168 81.5414 0.4653 31.3037 11.0335 -3.9200 -12.9066 1.6187 1.9313 -14.0972 -13.8706 
0.0000 93.1000 0.0000 70.8326 -10.9159 -5.8156 -70.9116 -0.1707 87.9953 81.7629 70.3255 -2.6018 -5.4254 15.9094 12.6788 -134.2014 41.3282 152.7431 -125.5388 81.3759 149.5349 0.8535 -14.3131 -23.7631 -78.9153 32.1670 -142.6333 19.4216 -6.1139 -102.9709 -0.4563 -0.6871 0.3100 -1.9161 6.9906 39.3595 -139.7072 5.9481 84.0269 10.9757 -1.3012 88.0289 0.3773 -0.7650 0.5353 -57.6659 10.1921 97.4082 -0.9902 28.3920 -6.0755 -2.9614 -12.0774 -0.6289 2.6524 -9.4836 14.9867 -51.8492 -9.9099 81.1446 1.1717 30.5917 12.6422 -4.2022 -12.6660 1.2198 2.3745 -13.7204 -14.4428 
0.0000 93.1000 0.0000 70.4263 -10.1938 -5.3981 -70.9237 -0.0905 87.9877 84.6173 70.6406 -4.8976 -6.0602 16.2075 12.0924 -133.9349 42.0511 151.2104 -122.5612 81.7144 145.5518 0.4859 -14.4824 -23.2308 -77.9514 31.3191 -143.7688 20.5463 -6.2799 -103.5994 -0.3905 -0.3090 -0.2636 -1.9246 6.9128 39.2456 -140.0419 6.7355 84.1007 10.5620 -1.1437 87.8087 0.0887 -0.3033 0.3207 -57.6826 10.1190 97.9147 -0.8846 27.3445 -5.3265 -3.4901 -12.3360 -1.0595 0.9403 -7.4982 12.7788 -51.3016 -10.9340 79.8655 1.6426 30.9275 12.4231 -4.4907 -12.4487 1.5607 1.5427 -12.9496 -14.0866 
0.0000 93.1000 0.0000 71.0028 -10.2443 -5.1076 -70.9467 -0.0649 87.9986 86.9799 71.3899 -6.7175 -6.3907 16.9660 11.3290 -134.1943 42.2189 150.4943 -121.9310 81.8790 146.1051 0.4591 -14.1402 -23.5146 -78.0381 31.3746 -143.8094 21.0309 -6.3531 -104.2178 -0.1074 -0.2075 -0.5117 -1.8767 6.8868 39.3481 -140.1176 7.1638 84.5685 11.0462 -1.2508 87.8755 0.0470 -0.1678 0.3737 -58.5439 10.1912 98.0764 -0.7802 27.0888 -5.5676 -3.1243 -12.0119 -1.2404 0.6886 -6.7430 13.6398 -51.2192 -11.0934 79.7040 1.3386 31.1019 12.3201 -4.7228 -11.8999 1.4743 1.9784 -10.9318 -12.7701 
0.0000 93.1000 0.0000 71.7010 -10.1825 -3.7826 -70.9576 -0.2186 88.0373 86.9300 71.2146 -6.9254 -6.2247 17.0760 10.6460 -135.2480 41.6158 152.6715 -122.7535 81.7016 145.5432 1.2236 -14.2823 -24.1343 -76.9039 31.5915 -143.9540 21.1580 -6.1127 -104.4124 -0.0489 -0.9759 0.3243 -1.7851 6.8553 38.9027 -140.0690 6.3210 84.1293 11.0926 -0.9748 87.5154 0.3197 -1.0729 0.6162 -58.6694 9.2200 98.8121 -0.2774 27.0311 -5.9075 -2.7393 -11.1007 -0.4493 0.1932 -6.8658 12.2011 -50.8018 -10.8038 80.6906 1.4678 32.1892 12.3365 -4.1655 -12.3825 0.8119 1.8542 -8.1866 -11.7738 
0.0000 93.1000 0.0000 71.8258 -10.5324 -4.8468 -70.9606 -0.1207 88.0254 87.1203 71.1173 -7.2107 -6.3073 17.0776 10.7875 -134.5842 41.6329 152.5493 -124.2414 82.1434 146.4207 0.5609 -14.4271 -24.3696 -76.6229 31.4229 -143.0961 21.1360 -6.9275 -104.1576 -0.2985 -0.4675 0.0056 -1.8263 6.9027 38.6163 -140.2684 6.1052 83.8297 10.6849 -0.9170 87.7301 0.1735 -0.5204 0.1501 -58.8630 9.0384 98.3067 -0.4241 26.6713 -5.3473 -2.8302 -11.0723 -0.8806 0.0371 -5.7704 12.0229 -50.6852 -10.2743 82.1074 1.9570 32.1876 12.1120 -3.7775 -12.5907 1.0220 1.2781 -7.2709 -11.9142 
0.0000 93.1000 0.0000 72.6672 -11.0829 -4.4219 -70.9562 -0.0799 88.0161 85.7048 71.0424 -6.7405 -6.1134 17.5050 11.0993 -133.9037 41.3773 152.4252 -121.1650 82.1875 145.4095 0.3905 -14.1931 -23.9882 -75.8083 31.6956 -142.9838 20.4160 -6.2760 -104.1763 -0.3756 -0.2551 -0.0361 -1.8190 7.1338 38.1319 -139.0505 5.9136 84.4190 10.6766 -0.8409 87.5796 0.2980 -0.2849 0.2614 -59.6352 9.1738 98.3608 0.0791 25.7383 -4.3193 -3.8065 -11.0056 -0.8990 -0.2627 -4.6898 10.9271 -50.3338 -11.0719 82.1244 1.6297 31.9434 10.2471 -3.9595 -12.6990 1.2210 0.9180 -8.1155 -11.2923 
0.0000 93.1000 0.0000 72.9103 -10.7191 -4.4551 -70.9655 -0.0609 88.0201 84.9309 70.6873 -6.0737 -5.7297 17.4922 10.9478 -133.7068 41.5404 152.2641 -123.7002 82.5926 145.2439 0.2351 -14.1201 -24.0646 -76.3013 31.9351 -141.8067 20.6220 -6.1644 -105.0212 -0.3098 -0.1573 -0.0795 -1.8551 7.1695 38.1142 -138.7423 4.9745 83.2283 11.0810 -1.1563 88.1238 0.4527 -0.1746 0.1668 -59.5323 9.2766 99.0098 -0.5679 25.6480 -4.7253 -3.0922 -11.0165 -1.0842 -0.2257 -4.8382 10.9289 -50.4098 -11.0030 81.2845 0.9784 31.6526 10.2489 -3.8334 -11.5745 1.2492 0.5594 -8.2027 -8.2917 
0.0000 93.1000 0.0000 72.5042 -10.1942 -5.1316 -70.9741 0.0360 88.0210 84.1654 70.9892 -5.3086 -4.9990 17.3627 10.7267 -133.9269 41.5311 152.5078 -124.7340 82.6931 147.5909 -0.2847 -14.5350 -24.0613 -75.4523 31.6632 -141.9265 20.6823 -6.5056 -105.2943 0.1074 0.3738 -0.3795 -1.8676 7.2492 37.0067 -137.6969 3.9582 83.5228 10.8277 -1.3326 88.3702 0.0127 0.3926 -0.0058 -59.6178 9.4328 99.4985 -1.2952 25.6859 -5.7151 -3.6053 -9.9932 -1.4092 -0.0029 -4.6294 11.2162 -51.4864 -11.1323 80.6631 1.2360 30.8276 9.8124 -3.8927 -11.0098 1.5477 0.8147 -9.0112 -4.9878 
0.0000 93.1000 0.0000 74.1988 -10.2659 -5.7170 -70.9827 0.0472 88.0089 83.3524 70.9438 -4.4877 -4.4087 16.9372 11.5363 -134.2801 41.4433 153.9050 -125.0875 83.0873 144.9611 -0.3536 -13.8228 -24.3861 -75.9844 32.1294 -141.1325 21.7252 -5.9335 -104.7535 -0.2058 0.4448 -0.1061 -1.8399 7.4636 36.9354 -138.1026 4.5173 83.3881 11.0767 -1.0843 87.8237 -0.0762 0.4416 -0.0084 -59.5675 9.2433 99.6497 -0.9536 26.2246 -5.9299 -3.4724 -9.6667 -1.4398 0.0425 -3.7534 10.2705 -52.1425 -11.1327 81.9782 0.8227 31.5652 10.5216 -3.7555 -10.8907 1.4732 0.9471 -9.4133 -5.7030 
0.0000 93.1000 0.0000 74.1658 -10.3329 -5.8364 -70.9846 0.0058 88.0214 82.9952 71.2732 -3.8681 -4.6091 17.6848 10.7841 -133.2798 41.6595 153.0586 -124.8944 82.8595 148.1750 -0.0542 -13.7540 -24.4143 -75.7922 31.7663 -141.7016 20.8327 -6.2311 -104.0595 -0.2520 0.2162 -0.0253 -1.8398 7.0369 37.3849 -137.9465 4.2470 84.1376 10.8809 -0.9446 88.0103 0.1375 0.1805 0.1950 -60.6370 9.2963 99.7940 -0.8531 25.7517 -6.0421 -3.1793 -8.6366 -1.2182 0.2365 -5.6819 10.8480 -51.4086 -11.2364 81.9586 0.3830 32.2520 9.9866 -3.9202 -10.9981 1.2051 0.8753 -8.1229 -4.8414 
0.0000 93.1000 0.0000 73.7720 -10.5451 -5.9703 -70.9758 0.0913 88.0010 83.0613 70.9976 -3.7575 -4.8631 17.1452 11.0276 -133.8751 42.1080 153.1733 -129.1580 82.8321 150.7023 -0.4797 -13.6862 -24.2127 -75.5608 31.7462 -141.9418 21.1764 -7.3726 -104.8843 -0.1786 0.6540 -0.5535 -1.7788 6.9686 37.0217 -137.8018 3.8408 84.2562 10.6498 -0.8271 87.8614 -0.2090 0.6788 -0.0094 -60.8721 9.1655 99.7998 -0.3363 24.8879 -6.2341 -2.9677 -8.7403 -1.7259 0.1171 -5.9073 10.5574 -51.2439 -11.0182 81.9576 0.9548 32.1119 10.6624 -3.7444 -10.7875 1.4648 0.9416 -9.0696 -4.0241 
0.0000 93.1000 0.0000 73.6846 -10.5666 -5.7832 -70.9705 -0.0535 88.0294 81.9726 71.0281 -2.9041 -4.4437 17.1343 10.9822 -134.1905 42.6083 154.4875 -129.3685 83.4275 153.0197 0.3033 -13.7020 -24.4086 -76.1738 31.8748 -140.8431 21.7467 -6.7946 -105.0910 -0.3420 -0.1154 -0.0192 -1.8123 6.6571 37.2807 -138.0371 3.2701 83.8320 10.6071 -0.9569 87.9193 0.4595 -0.2065 0.1048 -60.7617 9.0234 99.4512 -0.1235 24.7100 -5.9144 -2.4424 -9.0209 -1.1837 -0.1815 -6.0027 9.7417 -51.1047 -10.7709 81.8321 1.0522 32.3616 8.7007 -3.6193 -10.2240 1.1428 0.9801 -9.1950 -2.7674 
0.0000 93.1000 0.0000 74.8807 -10.4394 -5.5045 -70.9628 -0.0688 88.0249 80.7579 70.8153 -1.5582 -3.7583 17.0469 11.0665 -134.2061 42.5245 154.2033 -129.5436 83.0519 152.0105 0.3689 -13.9709 -24.4067 -75.8238 31.9365 -140.9424 21.1936 -6.2782 -104.9070 -0.3581 -0.1797 0.0637 -1.8025 6.6994 37.0610 -137.8747 3.0103 84.0051 10.8521 -1.2306 87.8692 0.4862 -0.3047 0.2185 -60.5257 9.1977 99.3495 -0.4147 24.5319 -5.8576 -2.8805 -8.6177 -1.0639 0.0414 -5.6165 10.0568 -51.3263 -11.1669 81.5042 0.8868 31.3877 8.7577 -3.1633 -9.6690 1.1156 0.9212 -8.4554 -3.9249 
0.0000 93.1000 0.0000 74.0727 -10.4340 -5.0940 -70.9658 -0.1045 88.0382 78.6694 71.0051 -0.0508 -2.9848 17.0135 10.8573 -134.3165 42.4593 155.2563 -129.3861 83.4162 152.1291 0.4391 -14.3237 -25.2065 -75.9951 31.7040 -140.9136 21.0046 -5.9608 -105.0441 -0.2845 -0.4042 0.2293 -1.8485 6.6715 38.1213 -137.9912 3.0111 84.1572 10.4448 -0.9811 87.9247 0.5344 -0.5407 0.1752 -60.6359 9.1716 100.2465 -0.4501 24.1691 -5.7495 -2.8168 -8.5846 -0.7602 -0.0159 -5.9729 9.6316 -51.0862 -10.6666 81.8471 0.5149 31.2581 7.9336 -3.1728 -9.6706 1.0955 0.7830 -8.7844 -3.3632 
0.0000 93.1000 0.0000 74.6758 -10.5731 -5.2789 -70.9638 -0.0135 88.0188 78.9889 70.9778 0.2886 -2.9159 16.9652 11.0736 -134.3109 42.9165 154.1233 -129.1030 83.7591 150.5175 -0.0975 -13.8445 -25.0856 -75.7816 31.5090 -140.0130 20.9946 -6.2793 -104.7962 -0.2303 0.0456 -0.1978 -1.8499 6.9687 38.1442 -138.0614 3.0071 84.1901 10.4049 -0.8602 88.0359 0.0315 -0.0232 0.0764 -60.4340 9.1518 100.2242 -0.3078 24.5039 -5.5046 -2.9315 -8.7644 -1.1050 0.7826 -5.8582 9.1772 -51.4071 -10.6994 81.9946 0.4710 31.1977 7.8380 -3.1150 -9.5982 1.2291 0.9428 -8.2423 -2.8259 
0.0000 93.1000 0.0000 73.6929 -10.3874 -5.3497 -70.9532 -0.0115 88.0182 77.7085 70.9638 1.0549 -2.7490 17.1010 11.0288 -134.1389 42.8992 154.5353 -129.4678 83.4125 151.5239 -0.1383 -14.2163 -24.4664 -75.8807 31.6316 -140.8611 20.7964 -6.8061 -104.8963 -0.1610 0.0291 -0.0800 -1.9497 6.8527 38.3549 -137.9438 3.1579 83.3669 10.5514 -0.7000 87.9983 -0.0330 -0.0386 0.0847 -60.5071 9.1874 100.2657 -0.2271 24.6061 -5.6583 -3.1425 -9.1444 -1.0703 0.8113 -5.3289 8.5151 -51.1804 -10.8343 82.7265 0.4608 32.1266 7.9252 -3.0936 -9.8424 1.2559 0.9474 -8.3785 -3.2301 
